<mxfile host="app.diagrams.net" modified="2023-03-28T13:13:29.588Z" agent="Mozilla/5.0 (Windows NT 10.0; Win64; x64) AppleWebKit/537.36 (KHTML, like Gecko) Chrome/111.0.0.0 Safari/537.36 Edg/111.0.1661.54" etag="IUIwg5cd6AKgLqo6WZGW" version="21.1.1" type="github">
  <diagram name="第 1 页" id="H3rtifVKTXqs-qG-SYUc">
    <mxGraphModel dx="897" dy="576" grid="1" gridSize="10" guides="1" tooltips="1" connect="1" arrows="0" fold="1" page="0" pageScale="1" pageWidth="827" pageHeight="1169" math="1" shadow="0">
      <root>
        <mxCell id="0" />
        <mxCell id="1" parent="0" />
        <mxCell id="aiK_bB90xM6GYwNLaQ02-22" value="" style="childLayout=tableLayout;recursiveResize=0;shadow=0;fillColor=#FFF2CC;direction=north;strokeColor=#36393d;" parent="1" vertex="1">
          <mxGeometry x="630" y="240" width="480" height="40" as="geometry" />
        </mxCell>
        <mxCell id="aiK_bB90xM6GYwNLaQ02-23" value="" style="shape=tableRow;horizontal=0;startSize=0;swimlaneHead=0;swimlaneBody=0;top=0;left=0;bottom=0;right=0;dropTarget=0;collapsible=0;recursiveResize=0;expand=0;fontStyle=0;fillColor=#FFF2CC;strokeColor=#36393d;" parent="aiK_bB90xM6GYwNLaQ02-22" vertex="1">
          <mxGeometry width="480" height="40" as="geometry" />
        </mxCell>
        <mxCell id="aiK_bB90xM6GYwNLaQ02-24" value="$$a_{0,0}^0$$" style="connectable=0;recursiveResize=0;strokeColor=#36393d;fillColor=#FFF2CC;align=center;whiteSpace=wrap;html=1;fillStyle=solid;" parent="aiK_bB90xM6GYwNLaQ02-23" vertex="1">
          <mxGeometry width="40" height="40" as="geometry">
            <mxRectangle width="40" height="40" as="alternateBounds" />
          </mxGeometry>
        </mxCell>
        <mxCell id="aiK_bB90xM6GYwNLaQ02-25" value="$$a_{0,1}^0$$" style="connectable=0;recursiveResize=0;strokeColor=#36393d;fillColor=#FFF2CC;align=center;whiteSpace=wrap;html=1;fillStyle=solid;" parent="aiK_bB90xM6GYwNLaQ02-23" vertex="1">
          <mxGeometry x="40" width="40" height="40" as="geometry">
            <mxRectangle width="40" height="40" as="alternateBounds" />
          </mxGeometry>
        </mxCell>
        <mxCell id="aiK_bB90xM6GYwNLaQ02-26" value="$$\cdots$$" style="connectable=0;recursiveResize=0;strokeColor=#36393d;fillColor=#FFF2CC;align=center;whiteSpace=wrap;html=1;" parent="aiK_bB90xM6GYwNLaQ02-23" vertex="1">
          <mxGeometry x="80" width="40" height="40" as="geometry">
            <mxRectangle width="40" height="40" as="alternateBounds" />
          </mxGeometry>
        </mxCell>
        <mxCell id="aiK_bB90xM6GYwNLaQ02-27" value="$$a_{0,12}^0$$" style="connectable=0;recursiveResize=0;strokeColor=#36393d;fillColor=#FFF2CC;align=center;whiteSpace=wrap;html=1;" parent="aiK_bB90xM6GYwNLaQ02-23" vertex="1">
          <mxGeometry x="120" width="40" height="40" as="geometry">
            <mxRectangle width="40" height="40" as="alternateBounds" />
          </mxGeometry>
        </mxCell>
        <mxCell id="aiK_bB90xM6GYwNLaQ02-43" value="$$a_{1,0}^0$$" style="connectable=0;recursiveResize=0;strokeColor=#36393d;fillColor=#FFF2CC;align=center;whiteSpace=wrap;html=1;" parent="aiK_bB90xM6GYwNLaQ02-23" vertex="1">
          <mxGeometry x="160" width="40" height="40" as="geometry">
            <mxRectangle width="40" height="40" as="alternateBounds" />
          </mxGeometry>
        </mxCell>
        <mxCell id="aiK_bB90xM6GYwNLaQ02-47" value="$$\cdots$$" style="connectable=0;recursiveResize=0;strokeColor=#36393d;fillColor=#FFF2CC;align=center;whiteSpace=wrap;html=1;" parent="aiK_bB90xM6GYwNLaQ02-23" vertex="1">
          <mxGeometry x="200" width="40" height="40" as="geometry">
            <mxRectangle width="40" height="40" as="alternateBounds" />
          </mxGeometry>
        </mxCell>
        <mxCell id="aiK_bB90xM6GYwNLaQ02-51" value="$$a_{12,12}^0$$" style="connectable=0;recursiveResize=0;strokeColor=#36393d;fillColor=#FFF2CC;align=center;whiteSpace=wrap;html=1;" parent="aiK_bB90xM6GYwNLaQ02-23" vertex="1">
          <mxGeometry x="240" width="40" height="40" as="geometry">
            <mxRectangle width="40" height="40" as="alternateBounds" />
          </mxGeometry>
        </mxCell>
        <mxCell id="YpGU3SZJsJ8dskGwvGlN-119" value="$$a_{0,0}^1$$" style="connectable=0;recursiveResize=0;strokeColor=#36393d;fillColor=#FFF2CC;align=center;whiteSpace=wrap;html=1;" vertex="1" parent="aiK_bB90xM6GYwNLaQ02-23">
          <mxGeometry x="280" width="40" height="40" as="geometry">
            <mxRectangle width="40" height="40" as="alternateBounds" />
          </mxGeometry>
        </mxCell>
        <mxCell id="YpGU3SZJsJ8dskGwvGlN-120" value="$$\cdots$$" style="connectable=0;recursiveResize=0;strokeColor=#36393d;fillColor=#FFF2CC;align=center;whiteSpace=wrap;html=1;" vertex="1" parent="aiK_bB90xM6GYwNLaQ02-23">
          <mxGeometry x="320" width="40" height="40" as="geometry">
            <mxRectangle width="40" height="40" as="alternateBounds" />
          </mxGeometry>
        </mxCell>
        <mxCell id="YpGU3SZJsJ8dskGwvGlN-121" value="$$a_{12,12}^1$$" style="connectable=0;recursiveResize=0;strokeColor=#36393d;fillColor=#FFF2CC;align=center;whiteSpace=wrap;html=1;" vertex="1" parent="aiK_bB90xM6GYwNLaQ02-23">
          <mxGeometry x="360" width="40" height="40" as="geometry">
            <mxRectangle width="40" height="40" as="alternateBounds" />
          </mxGeometry>
        </mxCell>
        <mxCell id="YpGU3SZJsJ8dskGwvGlN-126" value="$$\cdots$$" style="connectable=0;recursiveResize=0;strokeColor=#36393d;fillColor=#FFF2CC;align=center;whiteSpace=wrap;html=1;" vertex="1" parent="aiK_bB90xM6GYwNLaQ02-23">
          <mxGeometry x="400" width="40" height="40" as="geometry">
            <mxRectangle width="40" height="40" as="alternateBounds" />
          </mxGeometry>
        </mxCell>
        <mxCell id="YpGU3SZJsJ8dskGwvGlN-127" value="$$a_{12,12}^4$$" style="connectable=0;recursiveResize=0;strokeColor=#36393d;fillColor=#FFF2CC;align=center;whiteSpace=wrap;html=1;" vertex="1" parent="aiK_bB90xM6GYwNLaQ02-23">
          <mxGeometry x="440" width="40" height="40" as="geometry">
            <mxRectangle width="40" height="40" as="alternateBounds" />
          </mxGeometry>
        </mxCell>
        <mxCell id="aiK_bB90xM6GYwNLaQ02-55" value="" style="shape=flexArrow;endArrow=classic;html=1;rounded=0;" parent="1" edge="1">
          <mxGeometry width="50" height="50" relative="1" as="geometry">
            <mxPoint x="540" y="255" as="sourcePoint" />
            <mxPoint x="610" y="255" as="targetPoint" />
          </mxGeometry>
        </mxCell>
        <mxCell id="aiK_bB90xM6GYwNLaQ02-56" value="" style="endArrow=classic;html=1;rounded=0;" parent="1" edge="1">
          <mxGeometry width="50" height="50" relative="1" as="geometry">
            <mxPoint x="310" y="310" as="sourcePoint" />
            <mxPoint x="310" y="150" as="targetPoint" />
          </mxGeometry>
        </mxCell>
        <mxCell id="aiK_bB90xM6GYwNLaQ02-57" value="" style="endArrow=classic;html=1;rounded=0;" parent="1" edge="1">
          <mxGeometry width="50" height="50" relative="1" as="geometry">
            <mxPoint x="360" y="360" as="sourcePoint" />
            <mxPoint x="520" y="360" as="targetPoint" />
          </mxGeometry>
        </mxCell>
        <mxCell id="aiK_bB90xM6GYwNLaQ02-58" value="13" style="text;html=1;align=center;verticalAlign=middle;resizable=0;points=[];autosize=1;strokeColor=none;fillColor=none;" parent="1" vertex="1">
          <mxGeometry x="270" y="215" width="40" height="30" as="geometry" />
        </mxCell>
        <mxCell id="aiK_bB90xM6GYwNLaQ02-59" value="13" style="text;html=1;align=center;verticalAlign=middle;resizable=0;points=[];autosize=1;strokeColor=none;fillColor=none;" parent="1" vertex="1">
          <mxGeometry x="380" y="320" width="40" height="30" as="geometry" />
        </mxCell>
        <mxCell id="aiK_bB90xM6GYwNLaQ02-60" value="展平后的向量大小：\(845\times 1\)&lt;span style=&quot;border-color: var(--border-color);&quot;&gt;&amp;nbsp;&lt;/span&gt;" style="text;html=1;align=center;verticalAlign=middle;resizable=0;points=[];autosize=1;strokeColor=none;fillColor=none;" parent="1" vertex="1">
          <mxGeometry x="765" y="310" width="210" height="30" as="geometry" />
        </mxCell>
        <mxCell id="YpGU3SZJsJ8dskGwvGlN-106" value="" style="connectable=0;recursiveResize=0;strokeColor=#36393d;fillColor=#D4E1F5;align=center;whiteSpace=wrap;html=1;fillStyle=solid;" vertex="1" parent="1">
          <mxGeometry x="320" y="150" width="160" height="160" as="geometry">
            <mxRectangle width="40" height="40" as="alternateBounds" />
          </mxGeometry>
        </mxCell>
        <mxCell id="YpGU3SZJsJ8dskGwvGlN-111" value="" style="connectable=0;recursiveResize=0;strokeColor=#36393d;fillColor=#D4E1F5;align=center;whiteSpace=wrap;html=1;fillStyle=solid;" vertex="1" parent="1">
          <mxGeometry x="330" y="160" width="160" height="160" as="geometry">
            <mxRectangle width="40" height="40" as="alternateBounds" />
          </mxGeometry>
        </mxCell>
        <mxCell id="YpGU3SZJsJ8dskGwvGlN-112" value="" style="connectable=0;recursiveResize=0;strokeColor=#36393d;fillColor=#D4E1F5;align=center;whiteSpace=wrap;html=1;fillStyle=solid;" vertex="1" parent="1">
          <mxGeometry x="340" y="170" width="160" height="160" as="geometry">
            <mxRectangle width="40" height="40" as="alternateBounds" />
          </mxGeometry>
        </mxCell>
        <mxCell id="YpGU3SZJsJ8dskGwvGlN-113" value="" style="connectable=0;recursiveResize=0;strokeColor=#36393d;fillColor=#D4E1F5;align=center;whiteSpace=wrap;html=1;fillStyle=solid;" vertex="1" parent="1">
          <mxGeometry x="350" y="180" width="160" height="160" as="geometry">
            <mxRectangle width="40" height="40" as="alternateBounds" />
          </mxGeometry>
        </mxCell>
        <mxCell id="YpGU3SZJsJ8dskGwvGlN-85" value="" style="childLayout=tableLayout;recursiveResize=0;shadow=0;fillColor=#D4E1F5;direction=north;strokeColor=#36393d;" vertex="1" parent="1">
          <mxGeometry x="360" y="190" width="160" height="160" as="geometry" />
        </mxCell>
        <mxCell id="YpGU3SZJsJ8dskGwvGlN-86" value="" style="shape=tableRow;horizontal=0;startSize=0;swimlaneHead=0;swimlaneBody=0;top=0;left=0;bottom=0;right=0;dropTarget=0;collapsible=0;recursiveResize=0;expand=0;fontStyle=0;fillColor=#D4E1F5;strokeColor=#36393d;" vertex="1" parent="YpGU3SZJsJ8dskGwvGlN-85">
          <mxGeometry width="160" height="40" as="geometry" />
        </mxCell>
        <mxCell id="YpGU3SZJsJ8dskGwvGlN-87" value="$$a_{0,0}^0$$" style="connectable=0;recursiveResize=0;strokeColor=#36393d;fillColor=#D4E1F5;align=center;whiteSpace=wrap;html=1;fillStyle=solid;" vertex="1" parent="YpGU3SZJsJ8dskGwvGlN-86">
          <mxGeometry width="40" height="40" as="geometry">
            <mxRectangle width="40" height="40" as="alternateBounds" />
          </mxGeometry>
        </mxCell>
        <mxCell id="YpGU3SZJsJ8dskGwvGlN-88" value="$$a_{0,1}^0$$" style="connectable=0;recursiveResize=0;strokeColor=#36393d;fillColor=#D4E1F5;align=center;whiteSpace=wrap;html=1;fillStyle=solid;" vertex="1" parent="YpGU3SZJsJ8dskGwvGlN-86">
          <mxGeometry x="40" width="40" height="40" as="geometry">
            <mxRectangle width="40" height="40" as="alternateBounds" />
          </mxGeometry>
        </mxCell>
        <mxCell id="YpGU3SZJsJ8dskGwvGlN-89" value="$$\cdots$$" style="connectable=0;recursiveResize=0;strokeColor=#36393d;fillColor=#D4E1F5;align=center;whiteSpace=wrap;html=1;" vertex="1" parent="YpGU3SZJsJ8dskGwvGlN-86">
          <mxGeometry x="80" width="40" height="40" as="geometry">
            <mxRectangle width="40" height="40" as="alternateBounds" />
          </mxGeometry>
        </mxCell>
        <mxCell id="YpGU3SZJsJ8dskGwvGlN-90" value="$$a_{0,12}^0$$" style="connectable=0;recursiveResize=0;strokeColor=#36393d;fillColor=#D4E1F5;align=center;whiteSpace=wrap;html=1;" vertex="1" parent="YpGU3SZJsJ8dskGwvGlN-86">
          <mxGeometry x="120" width="40" height="40" as="geometry">
            <mxRectangle width="40" height="40" as="alternateBounds" />
          </mxGeometry>
        </mxCell>
        <mxCell id="YpGU3SZJsJ8dskGwvGlN-91" value="" style="shape=tableRow;horizontal=0;startSize=0;swimlaneHead=0;swimlaneBody=0;top=0;left=0;bottom=0;right=0;dropTarget=0;collapsible=0;recursiveResize=0;expand=0;fontStyle=0;fillColor=#D4E1F5;strokeColor=#36393d;swimlaneFillColor=none;" vertex="1" parent="YpGU3SZJsJ8dskGwvGlN-85">
          <mxGeometry y="40" width="160" height="40" as="geometry" />
        </mxCell>
        <mxCell id="YpGU3SZJsJ8dskGwvGlN-92" value="$$a_{1,0}^0$$" style="connectable=0;recursiveResize=0;strokeColor=#36393d;fillColor=#D4E1F5;align=center;whiteSpace=wrap;html=1;fillStyle=solid;" vertex="1" parent="YpGU3SZJsJ8dskGwvGlN-91">
          <mxGeometry width="40" height="40" as="geometry">
            <mxRectangle width="40" height="40" as="alternateBounds" />
          </mxGeometry>
        </mxCell>
        <mxCell id="YpGU3SZJsJ8dskGwvGlN-93" value="$$a_{1,1}^0$$" style="connectable=0;recursiveResize=0;strokeColor=#36393d;fillColor=#D4E1F5;align=center;whiteSpace=wrap;html=1;fillStyle=solid;" vertex="1" parent="YpGU3SZJsJ8dskGwvGlN-91">
          <mxGeometry x="40" width="40" height="40" as="geometry">
            <mxRectangle width="40" height="40" as="alternateBounds" />
          </mxGeometry>
        </mxCell>
        <mxCell id="YpGU3SZJsJ8dskGwvGlN-94" value="$$\cdots$$" style="connectable=0;recursiveResize=0;strokeColor=#36393d;fillColor=#D4E1F5;align=center;whiteSpace=wrap;html=1;" vertex="1" parent="YpGU3SZJsJ8dskGwvGlN-91">
          <mxGeometry x="80" width="40" height="40" as="geometry">
            <mxRectangle width="40" height="40" as="alternateBounds" />
          </mxGeometry>
        </mxCell>
        <mxCell id="YpGU3SZJsJ8dskGwvGlN-95" value="$$a_{1,12}^0$$" style="connectable=0;recursiveResize=0;strokeColor=#36393d;fillColor=#D4E1F5;align=center;whiteSpace=wrap;html=1;" vertex="1" parent="YpGU3SZJsJ8dskGwvGlN-91">
          <mxGeometry x="120" width="40" height="40" as="geometry">
            <mxRectangle width="40" height="40" as="alternateBounds" />
          </mxGeometry>
        </mxCell>
        <mxCell id="YpGU3SZJsJ8dskGwvGlN-96" value="" style="shape=tableRow;horizontal=0;startSize=0;swimlaneHead=0;swimlaneBody=0;top=0;left=0;bottom=0;right=0;dropTarget=0;collapsible=0;recursiveResize=0;expand=0;fontStyle=0;fillColor=#D4E1F5;strokeColor=#36393d;" vertex="1" parent="YpGU3SZJsJ8dskGwvGlN-85">
          <mxGeometry y="80" width="160" height="40" as="geometry" />
        </mxCell>
        <mxCell id="YpGU3SZJsJ8dskGwvGlN-97" value="$$\vdots$$" style="connectable=0;recursiveResize=0;strokeColor=#36393d;fillColor=#D4E1F5;align=center;whiteSpace=wrap;html=1;" vertex="1" parent="YpGU3SZJsJ8dskGwvGlN-96">
          <mxGeometry width="40" height="40" as="geometry">
            <mxRectangle width="40" height="40" as="alternateBounds" />
          </mxGeometry>
        </mxCell>
        <mxCell id="YpGU3SZJsJ8dskGwvGlN-98" value="$$\vdots$$" style="connectable=0;recursiveResize=0;strokeColor=#36393d;fillColor=#D4E1F5;align=center;whiteSpace=wrap;html=1;" vertex="1" parent="YpGU3SZJsJ8dskGwvGlN-96">
          <mxGeometry x="40" width="40" height="40" as="geometry">
            <mxRectangle width="40" height="40" as="alternateBounds" />
          </mxGeometry>
        </mxCell>
        <mxCell id="YpGU3SZJsJ8dskGwvGlN-99" value="$$\ddots$$" style="connectable=0;recursiveResize=0;strokeColor=#36393d;fillColor=#D4E1F5;align=center;whiteSpace=wrap;html=1;" vertex="1" parent="YpGU3SZJsJ8dskGwvGlN-96">
          <mxGeometry x="80" width="40" height="40" as="geometry">
            <mxRectangle width="40" height="40" as="alternateBounds" />
          </mxGeometry>
        </mxCell>
        <mxCell id="YpGU3SZJsJ8dskGwvGlN-100" value="$$\vdots$$" style="connectable=0;recursiveResize=0;strokeColor=#36393d;fillColor=#D4E1F5;align=center;whiteSpace=wrap;html=1;" vertex="1" parent="YpGU3SZJsJ8dskGwvGlN-96">
          <mxGeometry x="120" width="40" height="40" as="geometry">
            <mxRectangle width="40" height="40" as="alternateBounds" />
          </mxGeometry>
        </mxCell>
        <mxCell id="YpGU3SZJsJ8dskGwvGlN-101" value="" style="shape=tableRow;horizontal=0;startSize=0;swimlaneHead=0;swimlaneBody=0;top=0;left=0;bottom=0;right=0;dropTarget=0;collapsible=0;recursiveResize=0;expand=0;fontStyle=0;fillColor=#D4E1F5;strokeColor=#36393d;" vertex="1" parent="YpGU3SZJsJ8dskGwvGlN-85">
          <mxGeometry y="120" width="160" height="40" as="geometry" />
        </mxCell>
        <mxCell id="YpGU3SZJsJ8dskGwvGlN-102" value="$$a_{12,0}^0$$" style="connectable=0;recursiveResize=0;strokeColor=#36393d;fillColor=#D4E1F5;align=center;whiteSpace=wrap;html=1;" vertex="1" parent="YpGU3SZJsJ8dskGwvGlN-101">
          <mxGeometry width="40" height="40" as="geometry">
            <mxRectangle width="40" height="40" as="alternateBounds" />
          </mxGeometry>
        </mxCell>
        <mxCell id="YpGU3SZJsJ8dskGwvGlN-103" value="$$a_{12,1}^0$$" style="connectable=0;recursiveResize=0;strokeColor=#36393d;fillColor=#D4E1F5;align=center;whiteSpace=wrap;html=1;" vertex="1" parent="YpGU3SZJsJ8dskGwvGlN-101">
          <mxGeometry x="40" width="40" height="40" as="geometry">
            <mxRectangle width="40" height="40" as="alternateBounds" />
          </mxGeometry>
        </mxCell>
        <mxCell id="YpGU3SZJsJ8dskGwvGlN-104" value="$$\cdots$$" style="connectable=0;recursiveResize=0;strokeColor=#36393d;fillColor=#D4E1F5;align=center;whiteSpace=wrap;html=1;" vertex="1" parent="YpGU3SZJsJ8dskGwvGlN-101">
          <mxGeometry x="80" width="40" height="40" as="geometry">
            <mxRectangle width="40" height="40" as="alternateBounds" />
          </mxGeometry>
        </mxCell>
        <mxCell id="YpGU3SZJsJ8dskGwvGlN-105" value="$$a_{12,12}^0$$" style="connectable=0;recursiveResize=0;strokeColor=#36393d;fillColor=#D4E1F5;align=center;whiteSpace=wrap;html=1;" vertex="1" parent="YpGU3SZJsJ8dskGwvGlN-101">
          <mxGeometry x="120" width="40" height="40" as="geometry">
            <mxRectangle width="40" height="40" as="alternateBounds" />
          </mxGeometry>
        </mxCell>
        <mxCell id="YpGU3SZJsJ8dskGwvGlN-115" value="" style="endArrow=classic;html=1;rounded=0;" edge="1" parent="1">
          <mxGeometry width="50" height="50" relative="1" as="geometry">
            <mxPoint x="310" y="320" as="sourcePoint" />
            <mxPoint x="350" y="360" as="targetPoint" />
          </mxGeometry>
        </mxCell>
        <mxCell id="YpGU3SZJsJ8dskGwvGlN-116" value="5" style="text;html=1;align=center;verticalAlign=middle;resizable=0;points=[];autosize=1;strokeColor=none;fillColor=none;" vertex="1" parent="1">
          <mxGeometry x="295" y="335" width="30" height="30" as="geometry" />
        </mxCell>
        <mxCell id="YpGU3SZJsJ8dskGwvGlN-117" value="13" style="text;html=1;align=center;verticalAlign=middle;resizable=0;points=[];autosize=1;strokeColor=none;fillColor=none;" vertex="1" parent="1">
          <mxGeometry x="410" y="360" width="40" height="30" as="geometry" />
        </mxCell>
        <mxCell id="YpGU3SZJsJ8dskGwvGlN-128" value="" style="shape=curlyBracket;whiteSpace=wrap;html=1;rounded=1;flipH=1;labelPosition=right;verticalLabelPosition=middle;align=left;verticalAlign=middle;direction=south;" vertex="1" parent="1">
          <mxGeometry x="630" y="210" width="280" height="20" as="geometry" />
        </mxCell>
        <mxCell id="YpGU3SZJsJ8dskGwvGlN-129" value="行向量进行连接" style="text;html=1;align=center;verticalAlign=middle;resizable=0;points=[];autosize=1;strokeColor=none;fillColor=none;" vertex="1" parent="1">
          <mxGeometry x="715" y="180" width="110" height="30" as="geometry" />
        </mxCell>
        <mxCell id="YpGU3SZJsJ8dskGwvGlN-130" value="" style="shape=curlyBracket;whiteSpace=wrap;html=1;rounded=1;flipH=1;labelPosition=right;verticalLabelPosition=middle;align=left;verticalAlign=middle;direction=north;" vertex="1" parent="1">
          <mxGeometry x="630" y="290" width="480" height="20" as="geometry" />
        </mxCell>
        <mxCell id="YpGU3SZJsJ8dskGwvGlN-131" value="&lt;span style=&quot;color: rgb(0, 0, 0); font-family: Helvetica; font-size: 12px; font-style: normal; font-variant-ligatures: normal; font-variant-caps: normal; font-weight: 400; letter-spacing: normal; orphans: 2; text-align: center; text-indent: 0px; text-transform: none; widows: 2; word-spacing: 0px; -webkit-text-stroke-width: 0px; background-color: rgb(255, 255, 255); text-decoration-thickness: initial; text-decoration-style: initial; text-decoration-color: initial; float: none; display: inline !important;&quot;&gt;张量大小：\(13\times 13\times 5\)&lt;span&gt;&amp;nbsp;&lt;/span&gt;&lt;/span&gt;" style="text;whiteSpace=wrap;html=1;" vertex="1" parent="1">
          <mxGeometry x="360" y="110" width="190" height="40" as="geometry" />
        </mxCell>
      </root>
    </mxGraphModel>
  </diagram>
</mxfile>
